<svg xmlns="http://www.w3.org/2000/svg" aria-hidden="true" style="position:absolute;width:0;height:0;overflow:hidden">
  <defs>
  <symbol id="icon-chocolate-1" viewBox="0 0 31 32">
    <path fill="#fcf1e0" d="M3.765 19.89 14.052 3.258l.611-.643 7.861 5.242.054 3.163 1.919 3.13-8.476 13.437-12.256-7.696z" style="fill:var(--color1, #fcf1e0)"/>
      <path fill="none" stroke="#fd9222" stroke-linecap="round" stroke-linejoin="round" stroke-width="2.618" d="M20.651 23.521 7.11 15.06m3.735-6.125 13.541 8.461m-14.239 8.02L21.349 7.041m4.592 7.803c-2.902-1.813-4.041-3.23-2.174-6.293l-9.188-5.742L3.377 21.184l13.541 8.461 9.024-14.802z" style="stroke:var(--color2, #fd9222)"/>
  </symbol>
  <symbol id="icon-menu-03" viewBox="0 0 32 32">
      <path stroke-linecap="round" stroke-linejoin="round" stroke-width="2.286" d="M4 16h24M4 8h24M4 24h24"/>
    </symbol>
  <symbol id="icon-facebook" viewBox="0 0 32 32">
    <path stroke-linecap="round" stroke-linejoin="round" stroke-width="2" d="M24 2.667h-4a6.67 6.67 0 0 0-6.667 6.667v4h-4v5.333h4v10.667h5.333V18.667h4l1.333-5.333h-5.333v-4A1.334 1.334 0 0 1 20 8h4V2.667z"/>
  </symbol>
  <symbol id="icon-fi-rr-angle-small-left" viewBox="0 0 32 32">
    <path d="M16.947 17.867a1.334 1.334 0 0 1-1.894 0l-6.107-6.12a1.334 1.334 0 1 0-1.894 1.88l6.12 6.12a4.001 4.001 0 0 0 5.654 0l6.12-6.12a1.337 1.337 0 0 0-.434-2.172 1.331 1.331 0 0 0-1.46.292l-6.107 6.12z"/>
  </symbol>
  <symbol id="ingred-1" viewBox="0 0 32 32">
      <path fill="#111" d="m13.822 2.413 7.527 7.536.08-.08a.856.856 0 0 1 1.184-.013l.873.873c.305.305.315.77.083 1.094l-.004.007-.143.192 6.16 6.16c.55.55.55 1.43 0 1.98l-9.43 9.43c-.55.55-1.43.55-1.98 0l-4.447-4.447a.853.853 0 0 1-.612.317.842.842 0 0 1-.644-.246l-2.6-2.6a.856.856 0 0 1-.013-1.184l.006-.007.077-.076-7.527-7.527c-.55-.55-.55-1.43 0-1.98l9.43-9.43c.55-.55 1.43-.55 1.98 0v.001zm6.582 8.48-1.756-1.755a.59.59 0 0 0-.85 0l-3.58 3.58a.621.621 0 0 0-.179.43.602.602 0 0 0 .179.43l1.749 1.749.61-.61-1.565-1.565 3.21-3.22 1.569 1.574.613-.613zm-5.076 5.072-1.754-1.754a.59.59 0 0 0-.85 0l-3.59 3.59c-.24.23-.24.61 0 .85l1.752 1.752.616-.616-1.57-1.564 3.22-3.21 1.564 1.563.612-.611zM8.822 8.193l3.58 3.58c.24.24.62.24.85-.01l3.58-3.58a.57.57 0 0 0 .18-.42h.01c0-.15-.06-.31-.18-.43l-3.58-3.58a.602.602 0 0 0-.86 0l-3.58 3.59c-.24.23-.24.61 0 .85zm-5.07 5.07 3.58 3.58c.24.24.62.24.85 0l3.58-3.58a.578.578 0 0 0 .18-.43h.01c0-.16-.06-.31-.18-.43l-3.58-3.58a.59.59 0 0 0-.85 0l-3.59 3.59c-.24.23-.24.61 0 .85zm6.933 8.754 2.362 2.363 9.636-13.04-.655-.655-11.343 11.332z" style="fill:var(--color1, #111)"/>
      <path fill="#fd9222" d="m13.822 2.413 7.527 7.536.08-.08a.856.856 0 0 1 1.184-.013l.873.873c.305.305.315.77.083 1.094l-.004.007-.143.192 6.16 6.16c.55.55.55 1.43 0 1.98l-9.43 9.43c-.55.55-1.43.55-1.98 0l-4.447-4.447a.853.853 0 0 1-.612.317.842.842 0 0 1-.644-.246l-2.6-2.6a.856.856 0 0 1-.013-1.184l.006-.007.077-.076-7.527-7.527c-.55-.55-.55-1.43 0-1.98l9.43-9.43c.55-.55 1.43-.55 1.98 0v.001zm6.582 8.48-1.756-1.755a.59.59 0 0 0-.85 0l-3.58 3.58a.621.621 0 0 0-.179.43.602.602 0 0 0 .179.43l1.749 1.749.61-.61-1.565-1.565 3.21-3.22 1.569 1.574.613-.613zm-5.076 5.072-1.754-1.754a.59.59 0 0 0-.85 0l-3.59 3.59c-.24.23-.24.61 0 .85l1.752 1.752.616-.616-1.57-1.564 3.22-3.21 1.564 1.563.612-.611zM8.822 8.193l3.58 3.58c.24.24.62.24.85-.01l3.58-3.58a.57.57 0 0 0 .18-.42h.01c0-.15-.06-.31-.18-.43l-3.58-3.58a.602.602 0 0 0-.86 0l-3.58 3.59c-.24.23-.24.61 0 .85zm-5.07 5.07 3.58 3.58c.24.24.62.24.85 0l3.58-3.58a.578.578 0 0 0 .18-.43h.01c0-.16-.06-.31-.18-.43l-3.58-3.58a.59.59 0 0 0-.85 0l-3.59 3.59c-.24.23-.24.61 0 .85zm6.933 8.754 2.362 2.363 9.636-13.04-.655-.655-11.343 11.332z" style="fill:var(--color2, #fd9222)"/>
    </symbol>
    <symbol id="ingred-2" viewBox="0 0 32 32">
      <path fill="#fd9222" d="M16 .762C7.619.762.762 7.619.762 16S7.619 31.238 16 31.238 31.238 24.381 31.238 16 24.381.762 16 .762zm0 27.428C9.295 28.19 3.81 22.704 3.81 16S9.296 3.809 16 3.809c6.705 0 12.19 5.486 12.19 12.191s-5.486 12.19-12.191 12.19z" style="fill:var(--color2, #fd9222)"/>
      <path fill="#fd9222" d="M17.981 14.476h-3.962c-.762 0-1.371-.61-1.371-1.371s.61-1.371 1.371-1.371h5.638c.914 0 1.524-.61 1.524-1.524s-.61-1.524-1.524-1.524h-2.133V7.315c0-.914-.61-1.524-1.524-1.524s-1.524.61-1.524 1.524v1.371h-.457c-2.438 0-4.419 1.981-4.419 4.419s1.981 4.419 4.419 4.419h3.809c.762 0 1.371.61 1.371 1.371s-.61 1.371-1.371 1.371H12.19c-.914 0-1.524.61-1.524 1.524s.61 1.524 1.524 1.524h2.286v1.371c0 .914.61 1.524 1.524 1.524s1.524-.61 1.524-1.524v-1.371h.457c2.438 0 4.419-1.981 4.419-4.419s-1.981-4.419-4.419-4.419z" style="fill:var(--color2, #fd9222)"/>
    </symbol>
    <symbol id="ingred-3" viewBox="0 0 32 32">
      <path fill="#fd9222" d="M15.451 14.106a5.154 5.154 0 0 1-1.177-3.282c0-4.324 5.181-8.642 10.362-8.642a5.183 5.183 0 0 1 5.181 5.182c0 5.182-4.317 10.364-8.646 10.364a5.15 5.15 0 0 1-3.281-1.177L5.132 29.312a1.73 1.73 0 0 1-2.445-2.445l12.764-12.761z" style="fill:var(--color2, #fd9222)"/>
    </symbol>
    <symbol id="icon-arrow" viewBox="0 0 32 32">
      <path fill="none" stroke="#fafafa" stroke-linecap="round" stroke-linejoin="round" stroke-width="1.333" d="M9.143 16h13.714m0 0-3.429-3.429M22.857 16l-3.429 3.429M16 30.857c8.205 0 14.857-6.652 14.857-14.857S24.205 1.143 16 1.143C7.795 1.143 1.143 7.795 1.143 16S7.795 30.857 16 30.857z" style="stroke:var(--color1, #fafafa)"/>
    </symbol>
    <symbol id="icon-play" viewBox="0 0 32 32">
      <path fill="#f5f4f4" d="M11.886 23.771V10.057l12.8 6.857-12.8 6.857z" style="fill:var(--color1, #f5f4f4)"/>
      <path fill="none" stroke="#fff" stroke-width=".914" d="M31.543 16c0 8.584-6.959 15.543-15.543 15.543S.457 24.584.457 16 7.416.457 16 .457 31.543 7.416 31.543 16z" style="stroke:var(--color2, #fff)"/>
    </symbol>
  <symbol id="icon-instagram" viewBox="0 0 32 32">
    <path stroke-linecap="round" stroke-linejoin="round" stroke-width="2" d="M22.667 2.667H9.334a6.667 6.667 0 0 0-6.667 6.667v13.333a6.667 6.667 0 0 0 6.667 6.667h13.333a6.667 6.667 0 0 0 6.667-6.667V9.334a6.667 6.667 0 0 0-6.667-6.667z"/>
    <path stroke-linecap="round" stroke-linejoin="round" stroke-width="2" d="M21.333 15.16a5.329 5.329 0 0 1-2.878 5.546 5.337 5.337 0 0 1-6.169-.992 5.33 5.33 0 0 1 1.316-8.505 5.336 5.336 0 0 1 6.228.962 5.328 5.328 0 0 1 1.504 2.989zM23.333 8.667h.013"/>
  </symbol>
  <symbol id="icon-twitter" viewBox="0 0 32 32">
    <path stroke-linecap="round" stroke-linejoin="round" stroke-width="2" d="M30.667 4a14.542 14.542 0 0 1-4.187 2.04 5.975 5.975 0 0 0-6.637-1.661A5.981 5.981 0 0 0 16 10.04v1.333c-2.343.061-4.665-.459-6.759-1.513S4.68 6.297 3.333 4.379c0 0-4.667 12.954 7.333 18.287a15.519 15.519 0 0 1-9.333 2.667C13.333 32 28 25.333 28 10a5.966 5.966 0 0 0-.107-1.107A10.288 10.288 0 0 0 30.666 4z"/>
  </symbol>
  </defs>
</svg>